{
  "accessors": [
    {
      "bufferView": 2,
      "componentType": 5126,
      "count": 65532,
      "max": [
        0.6257337927818298,
        0.65633624792099,
        0.596836268901825
      ],
      "min": [
        -0.5097346901893616,
        -0.7092694044113159,
        -0.5774286389350891
      ],
      "type": "VEC3"
    },
    {
      "bufferView": 2,
      "byteOffset": 786384,
      "componentType": 5126,
      "count": 65532,
      "max": [
        0.9999901652336121,
        0.999999463558197,
        1.0
      ],
      "min": [
        -0.9999915361404419,
        -0.9999940991401672,
        -0.9999908804893494
      ],
      "type": "VEC3"
    },
    {
      "bufferView": 1,
      "componentType": 5126,
      "count": 65532,
      "max": [
        0.9973865747451782,
        0.9996889233589172
      ],
      "min": [
        0.0003408945049159229,
        0.002434908412396908
      ],
      "type": "VEC2"
    },
    {
      "bufferView": 1,
      "byteOffset": 524256,
      "componentType": 5126,
      "count": 65532,
      "max": [
        0.9973865747451782,
        0.9996889233589172
      ],
      "min": [
        0.0003408945049159229,
        0.002434908412396908
      ],
      "type": "VEC2"
    },
    {
      "bufferView": 0,
      "componentType": 5125,
      "count": 287622,
      "type": "SCALAR"
    },
    {
      "bufferView": 2,
      "byteOffset": 1572768,
      "componentType": 5126,
      "count": 65532,
      "max": [
        0.626342236995697,
        0.65633624792099,
        0.6014373302459717
      ],
      "min": [
        -0.5098311305046082,
        -0.746138334274292,
        -0.5774307250976563
      ],
      "type": "VEC3"
    },
    {
      "bufferView": 2,
      "byteOffset": 2359152,
      "componentType": 5126,
      "count": 65532,
      "max": [
        0.9999988079071045,
        0.999999463558197,
        1.0
      ],
      "min": [
        -0.9999998807907104,
        -0.9999940991401672,
        -1.0
      ],
      "type": "VEC3"
    },
    {
      "bufferView": 1,
      "byteOffset": 1048512,
      "componentType": 5126,
      "count": 65532,
      "max": [
        0.9995579719543457,
        0.999900221824646
      ],
      "min": [
        7.196475780801848e-05,
        0.000485218275571242
      ],
      "type": "VEC2"
    },
    {
      "bufferView": 1,
      "byteOffset": 1572768,
      "componentType": 5126,
      "count": 65532,
      "max": [
        0.9995579719543457,
        0.999900221824646
      ],
      "min": [
        7.196475780801848e-05,
        0.000485218275571242
      ],
      "type": "VEC2"
    },
    {
      "bufferView": 0,
      "byteOffset": 1150488,
      "componentType": 5125,
      "count": 260799,
      "type": "SCALAR"
    },
    {
      "bufferView": 2,
      "byteOffset": 3145536,
      "componentType": 5126,
      "count": 65532,
      "max": [
        0.626342236995697,
        0.6541048884391785,
        0.599152147769928
      ],
      "min": [
        -0.5049794912338257,
        -0.746138334274292,
        -0.5774059891700745
      ],
      "type": "VEC3"
    },
    {
      "bufferView": 2,
      "byteOffset": 3931920,
      "componentType": 5126,
      "count": 65532,
      "max": [
        0.9999960660934448,
        0.9999924898147583,
        1.0
      ],
      "min": [
        -0.999940812587738,
        -0.9999893307685852,
        -0.9999587535858154
      ],
      "type": "VEC3"
    },
    {
      "bufferView": 1,
      "byteOffset": 2097024,
      "componentType": 5126,
      "count": 65532,
      "max": [
        0.9994606971740723,
        0.9997019171714783
      ],
      "min": [
        0.00020964695431757718,
        0.00043123960494995117
      ],
      "type": "VEC2"
    },
    {
      "bufferView": 1,
      "byteOffset": 2621280,
      "componentType": 5126,
      "count": 65532,
      "max": [
        0.9994606971740723,
        0.9997019171714783
      ],
      "min": [
        0.00020964695431757718,
        0.00043123960494995117
      ],
      "type": "VEC2"
    },
    {
      "bufferView": 0,
      "byteOffset": 2193684,
      "componentType": 5125,
      "count": 236436,
      "type": "SCALAR"
    },
    {
      "bufferView": 2,
      "byteOffset": 4718304,
      "componentType": 5126,
      "count": 131,
      "max": [
        -0.31547480821609497,
        0.5416458249092102,
        -0.43957236409187317
      ],
      "min": [
        -0.4122943878173828,
        -0.17271240055561066,
        -0.5633574724197388
      ],
      "type": "VEC3"
    },
    {
      "bufferView": 2,
      "byteOffset": 4719876,
      "componentType": 5126,
      "count": 131,
      "max": [
        0.7698618769645691,
        0.271824449300766,
        0.9999129176139832
      ],
      "min": [
        -0.9999388456344604,
        -0.9274623990058899,
        -0.7804579138755798
      ],
      "type": "VEC3"
    },
    {
      "bufferView": 1,
      "byteOffset": 3145536,
      "componentType": 5126,
      "count": 131,
      "max": [
        0.9760167002677917,
        0.7733691334724426
      ],
      "min": [
        0.16576696932315826,
        0.030268080532550812
      ],
      "type": "VEC2"
    },
    {
      "bufferView": 1,
      "byteOffset": 3146584,
      "componentType": 5126,
      "count": 131,
      "max": [
        0.9760167002677917,
        0.7733691334724426
      ],
      "min": [
        0.16576696932315826,
        0.030268080532550812
      ],
      "type": "VEC2"
    },
    {
      "bufferView": 0,
      "byteOffset": 3139428,
      "componentType": 5125,
      "count": 375,
      "type": "SCALAR"
    }
  ],
  "asset": {
    "extras": {
      "author": "Samad.Ahmed (https://sketchfab.com/Samad.Ahmed)",
      "license": "CC-BY-4.0 (http://creativecommons.org/licenses/by/4.0/)",
      "source": "https://sketchfab.com/3d-models/coffee-bag-3c37b086094a43788987dde4b5ce0f0f",
      "title": "Coffee Bag"
    },
    "generator": "Sketchfab-15.43.0",
    "version": "2.0"
  },
  "bufferViews": [
    {
      "buffer": 0,
      "byteLength": 3140928,
      "name": "floatBufferViews",
      "target": 34963
    },
    {
      "buffer": 0,
      "byteLength": 3147632,
      "byteOffset": 3140928,
      "byteStride": 8,
      "name": "floatBufferViews",
      "target": 34962
    },
    {
      "buffer": 0,
      "byteLength": 4721448,
      "byteOffset": 6288560,
      "byteStride": 12,
      "name": "floatBufferViews",
      "target": 34962
    }
  ],
  "buffers": [
    {
      "byteLength": 11010008,
      "uri": "scene.bin"
    }
  ],
  "extensionsUsed": [
    "KHR_materials_specular"
  ],
  "images": [
    {
      "uri": "textures/Material_0_baseColor.jpeg"
    }
  ],
  "materials": [
    {
      "doubleSided": true,
      "extensions": {
        "KHR_materials_specular": {
          "specularColorFactor": [
            1.0,
            1.0,
            1.0
          ],
          "specularFactor": 0.21749982150766867
        }
      },
      "name": "Material_0",
      "pbrMetallicRoughness": {
        "baseColorTexture": {
          "index": 0
        },
        "metallicFactor": 0.0
      }
    }
  ],
  "meshes": [
    {
      "name": "Retopo_Mesh_4_Material_0_0",
      "primitives": [
        {
          "attributes": {
            "NORMAL": 1,
            "POSITION": 0,
            "TEXCOORD_0": 2,
            "TEXCOORD_1": 3
          },
          "indices": 4,
          "material": 0,
          "mode": 4
        }
      ]
    },
    {
      "name": "Retopo_Mesh_4_Material_0_0",
      "primitives": [
        {
          "attributes": {
            "NORMAL": 6,
            "POSITION": 5,
            "TEXCOORD_0": 7,
            "TEXCOORD_1": 8
          },
          "indices": 9,
          "material": 0,
          "mode": 4
        }
      ]
    },
    {
      "name": "Retopo_Mesh_4_Material_0_0",
      "primitives": [
        {
          "attributes": {
            "NORMAL": 11,
            "POSITION": 10,
            "TEXCOORD_0": 12,
            "TEXCOORD_1": 13
          },
          "indices": 14,
          "material": 0,
          "mode": 4
        }
      ]
    },
    {
      "name": "Retopo_Mesh_4_Material_0_0",
      "primitives": [
        {
          "attributes": {
            "NORMAL": 16,
            "POSITION": 15,
            "TEXCOORD_0": 17,
            "TEXCOORD_1": 18
          },
          "indices": 19,
          "material": 0,
          "mode": 4
        }
      ]
    }
  ],
  "nodes": [
    {
      "children": [
        1
      ],
      "matrix": [
        0.9838258624076843,
        0.0,
        0.0,
        0.0,
        0.0,
        2.1845322493334248e-16,
        -0.9838258624076843,
        0.0,
        0.0,
        0.9838258624076843,
        2.1845322493334248e-16,
        0.0,
        0.0,
        0.0,
        0.0,
        1.0
      ],
      "name": "Sketchfab_model"
    },
    {
      "children": [
        2
      ],
      "matrix": [
        0.009999999776482582,
        0.0,
        0.0,
        0.0,
        0.0,
        0.0,
        0.009999999776482582,
        0.0,
        0.0,
        -0.009999999776482582,
        0.0,
        0.0,
        0.0,
        0.0,
        0.0,
        1.0
      ],
      "name": "19d69e945b8d499eaaca827094f39072.fbx"
    },
    {
      "children": [
        3
      ],
      "name": "RootNode"
    },
    {
      "children": [
        4,
        5,
        6,
        7
      ],
      "matrix": [
        100.0,
        0.0,
        0.0,
        0.0,
        0.0,
        -1.629206793918314e-05,
        -99.99999999999868,
        0.0,
        0.0,
        99.99999999999868,
        -1.629206793918314e-05,
        0.0,
        2.842170943040401e-14,
        0.0,
        0.0,
        1.0
      ],
      "name": "Retopo_Mesh_4"
    },
    {
      "mesh": 0,
      "name": "Retopo_Mesh_4_Material_0_0"
    },
    {
      "mesh": 1,
      "name": "Retopo_Mesh_4_Material_0_0"
    },
    {
      "mesh": 2,
      "name": "Retopo_Mesh_4_Material_0_0"
    },
    {
      "mesh": 3,
      "name": "Retopo_Mesh_4_Material_0_0"
    }
  ],
  "samplers": [
    {
      "magFilter": 9729,
      "minFilter": 9987,
      "wrapS": 10497,
      "wrapT": 10497
    }
  ],
  "scene": 0,
  "scenes": [
    {
      "name": "Sketchfab_Scene",
      "nodes": [
        0
      ]
    }
  ],
  "textures": [
    {
      "sampler": 0,
      "source": 0
    }
  ]
}
